# xmcd CD database file
#
# Track frame offsets:
#	150
#	57512
#	126358
#
# Disc length: 3281 seconds
#
# Revision: 0
# Processed by: cddbd v1.5.2PL0 Copyright (c) Steve Scherf et al.
# Submitted via: CDex 1.51
#
DISCID=280ccf03
DTITLE=Various Artist - Джазовые тезисы в Архангельске
DYEAR=2005
DGENRE=Jazz
TTITLE0=Винцкевичи+Юданов
TTITLE1=Ronin (Швейцария)
TTITLE2=Shibusashirazu (Япония)
EXTD=YEAR: 2005
EXTT0=
EXTT1=
EXTT2=
PLAYORDER=
